<svg width="20" height="20" viewBox="0 0 20 20" fill="none" xmlns="http://www.w3.org/2000/svg">
<g clip-path="url(#clip0_327_490)">
<path fill-rule="evenodd" clip-rule="evenodd" d="M10.1574 0C4.91233 0 0.664062 4.475 0.664062 10C0.664062 14.425 3.38153 18.1625 7.15513 19.4875C7.62979 19.575 7.80779 19.275 7.80779 19.0125C7.80779 18.775 7.79593 17.9875 7.79593 17.15C5.41073 17.6125 4.79366 16.5375 4.6038 15.975C4.497 15.6875 4.0342 14.8 3.63073 14.5625C3.29846 14.375 2.8238 13.9125 3.61886 13.9C4.36646 13.8875 4.90046 14.625 5.07846 14.925C5.93286 16.4375 7.29753 16.0125 7.84339 15.75C7.92646 15.1 8.17566 14.6625 8.44859 14.4125C6.33633 14.1625 4.12913 13.3 4.12913 9.475C4.12913 8.3875 4.497 7.4875 5.1022 6.7875C5.00726 6.5375 4.675 5.5125 5.19713 4.1375C5.19713 4.1375 5.99219 3.875 7.80779 5.1625C8.56726 4.9375 9.37419 4.825 10.1811 4.825C10.9881 4.825 11.795 4.9375 12.5545 5.1625C14.3701 3.8625 15.1651 4.1375 15.1651 4.1375C15.6873 5.5125 15.355 6.5375 15.2601 6.7875C15.8653 7.4875 16.2331 8.375 16.2331 9.475C16.2331 13.3125 14.0141 14.1625 11.9018 14.4125C12.2459 14.725 12.5426 15.325 12.5426 16.2625C12.5426 17.6 12.5307 18.675 12.5307 19.0125C12.5307 19.275 12.7087 19.5875 13.1834 19.4875C15.068 18.8173 16.7056 17.5414 17.8657 15.8395C19.0259 14.1375 19.6502 12.0952 19.6507 10C19.6507 4.475 15.4025 0 10.1574 0Z" fill="black"/>
</g>
<defs>
<clipPath id="clip0_327_490">
<rect width="18.9867" height="20" fill="white" transform="translate(0.664062)"/>
</clipPath>
</defs>
</svg>
