<svg width="19" height="20" viewBox="0 0 19 20" fill="none" xmlns="http://www.w3.org/2000/svg">
<g clip-path="url(#clip0_327_446)">
<path fill-rule="evenodd" clip-rule="evenodd" d="M9.59164 0C4.43012 0 0.249512 4.475 0.249512 10C0.249512 14.425 2.9237 18.1625 6.63719 19.4875C7.1043 19.575 7.27947 19.275 7.27947 19.0125C7.27947 18.775 7.26779 17.9875 7.26779 17.15C4.92058 17.6125 4.31334 16.5375 4.1265 15.975C4.0214 15.6875 3.56597 14.8 3.16893 14.5625C2.84195 14.375 2.37485 13.9125 3.15725 13.9C3.89294 13.8875 4.41844 14.625 4.5936 14.925C5.4344 16.4375 6.77733 16.0125 7.3145 15.75C7.39624 15.1 7.64147 14.6625 7.91006 14.4125C5.83144 14.1625 3.65939 13.3 3.65939 9.475C3.65939 8.3875 4.0214 7.4875 4.61696 6.7875C4.52354 6.5375 4.19656 5.5125 4.71038 4.1375C4.71038 4.1375 5.49278 3.875 7.27947 5.1625C8.02684 4.9375 8.82092 4.825 9.615 4.825C10.4091 4.825 11.2032 4.9375 11.9505 5.1625C13.7372 3.8625 14.5196 4.1375 14.5196 4.1375C15.0334 5.5125 14.7065 6.5375 14.613 6.7875C15.2086 7.4875 15.5706 8.375 15.5706 9.475C15.5706 13.3125 13.3869 14.1625 11.3083 14.4125C11.6469 14.725 11.9389 15.325 11.9389 16.2625C11.9389 17.6 11.9272 18.675 11.9272 19.0125C11.9272 19.275 12.1023 19.5875 12.5694 19.4875C14.424 18.8173 16.0355 17.5414 17.1772 15.8395C18.3189 14.1375 18.9332 12.0952 18.9338 10C18.9338 4.475 14.7532 0 9.59164 0Z" fill="black"/>
</g>
<defs>
<clipPath id="clip0_327_446">
<rect width="18.6843" height="20" fill="white" transform="translate(0.249512)"/>
</clipPath>
</defs>
</svg>
