<svg width="20" height="20" viewBox="0 0 20 20" fill="none" xmlns="http://www.w3.org/2000/svg">
<path d="M11.2403 8.71336C10.6027 8.03106 9.73794 7.64777 8.83631 7.64777C7.93467 7.64777 7.06995 8.03106 6.43226 8.71336L4.02744 11.2867C3.38975 11.9693 3.03149 12.8951 3.03149 13.8604C3.03149 14.8258 3.38975 15.7516 4.02744 16.4342C4.66514 17.1168 5.53004 17.5003 6.43187 17.5003C7.33371 17.5003 8.19861 17.1168 8.83631 16.4342L10.0383 15.1475" stroke="black" stroke-width="1.66667" stroke-linecap="round" stroke-linejoin="round"/>
<path d="M8.83643 11.2867C9.47411 11.969 10.3388 12.3523 11.2405 12.3523C12.1421 12.3523 13.0068 11.969 13.6445 11.2867L16.0493 8.71334C16.687 8.03074 17.0453 7.10493 17.0453 6.13959C17.0453 5.17424 16.687 4.24844 16.0493 3.56584C15.4116 2.88324 14.5467 2.49976 13.6449 2.49976C12.7431 2.49976 11.8782 2.88324 11.2405 3.56584L10.0384 4.8525" stroke="black" stroke-width="1.66667" stroke-linecap="round" stroke-linejoin="round"/>
</svg>
