<svg width="23" height="24" viewBox="0 0 23 24" fill="none" xmlns="http://www.w3.org/2000/svg">
<g clip-path="url(#clip0_136_284)">
<path d="M11.4192 0C8.37978 0 7.99735 0.0136719 6.80453 0.0722656C5.8765 0.0924949 4.9584 0.281371 4.08926 0.630859C3.34225 0.930393 2.66581 1.40248 2.1079 2.01367C1.53853 2.61325 1.09737 3.33829 0.814912 4.13867C0.488919 5.07138 0.313406 6.05682 0.295897 7.05273C0.243084 8.33203 0.228516 8.74023 0.228516 12C0.228516 15.2598 0.241263 15.666 0.295897 16.9473C0.314758 17.9426 0.490867 18.9272 0.816733 19.8594C1.0974 20.6598 1.53739 21.385 2.10608 21.9844C2.66465 22.5956 3.34082 23.0689 4.08744 23.3711C4.95734 23.7198 5.87603 23.908 6.80453 23.9277C7.99735 23.9863 8.37796 24 11.4174 24C14.4568 24 14.8356 23.9863 16.0302 23.9277C16.9587 23.908 17.8774 23.7198 18.7473 23.3711C19.4915 23.0615 20.1673 22.589 20.7317 21.9837C21.2961 21.3784 21.7367 20.6536 22.0253 19.8555C22.3494 18.9228 22.5255 17.9385 22.5462 16.9434C22.599 15.6641 22.6135 15.2559 22.6135 11.9961C22.6135 8.73633 22.599 8.32812 22.5462 7.04883C22.5255 6.0531 22.3494 5.06811 22.0253 4.13477C21.7442 3.33411 21.3036 2.6089 20.7342 2.00977C20.1766 1.39813 19.5001 0.92597 18.7528 0.626953C17.8805 0.277932 16.9593 0.0903683 16.0284 0.0722656C14.8338 0.0136719 14.455 0 11.4156 0H11.4192ZM10.414 2.16211H11.4192C14.4058 2.16211 14.7591 2.17383 15.9392 2.23242C16.6487 2.24108 17.3516 2.38048 18.0171 2.64453C18.5029 2.83703 18.9423 3.14406 19.3028 3.54297C19.674 3.93024 19.9601 4.40126 20.1405 4.92188C20.3867 5.63561 20.5167 6.38943 20.5247 7.15039C20.5794 8.41406 20.5903 8.79492 20.5903 11.998C20.5903 15.2012 20.5794 15.5801 20.5247 16.8457C20.5168 17.6061 20.3869 18.3593 20.1405 19.0723C19.9541 19.5894 19.6689 20.059 19.3032 20.4508C18.9375 20.8427 18.4994 21.1482 18.0171 21.3477C17.352 21.6137 16.649 21.7538 15.9392 21.7617C14.7609 21.8203 14.4058 21.832 11.4192 21.832C8.4326 21.832 8.07748 21.8203 6.8974 21.7617C6.18777 21.7524 5.48491 21.6124 4.81952 21.3477C4.33318 21.156 3.89317 20.8496 3.532 20.4512C3.16071 20.0644 2.87507 19.5932 2.69611 19.0723C2.44929 18.3586 2.3187 17.6048 2.31004 16.8438C2.25723 15.5781 2.2463 15.1992 2.2463 11.9941C2.2463 8.78906 2.25723 8.41211 2.31004 7.14648C2.3176 6.38529 2.44823 5.63127 2.69611 4.91797C2.87507 4.39706 3.16071 3.92586 3.532 3.53906C3.89346 3.14052 4.33334 2.83358 4.81952 2.64062C5.48512 2.37673 6.18785 2.2367 6.8974 2.22656C7.92997 2.17773 8.32879 2.16211 10.414 2.16016V2.16211ZM17.3906 4.1543C17.1247 4.1543 16.8648 4.23888 16.6438 4.39735C16.4227 4.55582 16.2504 4.78106 16.1488 5.04455C16.0471 5.30805 16.0206 5.59797 16.0726 5.87763C16.1246 6.15729 16.2528 6.41412 16.4409 6.61562C16.6291 6.81713 16.8687 6.95425 17.1295 7.00965C17.3904 7.06505 17.6606 7.03622 17.9062 6.92683C18.1517 6.81743 18.3615 6.63238 18.509 6.39508C18.6564 6.15779 18.7349 5.87892 18.7346 5.59375C18.7346 5.40455 18.6998 5.21721 18.6322 5.04244C18.5647 4.86767 18.4657 4.7089 18.3408 4.57521C18.216 4.44152 18.0678 4.33553 17.9048 4.26331C17.7417 4.19108 17.567 4.15404 17.3906 4.1543ZM11.4192 5.83789C10.2828 5.83789 9.17199 6.19929 8.22713 6.87639C7.28227 7.55349 6.54585 8.51588 6.11098 9.64186C5.67611 10.7678 5.56233 12.0068 5.78402 13.2022C6.00571 14.3975 6.55293 15.4955 7.35646 16.3573C8.16 17.2191 9.18376 17.8059 10.2983 18.0437C11.4128 18.2815 12.5681 18.1594 13.6179 17.693C14.6678 17.2267 15.5652 16.4368 16.1965 15.4235C16.8278 14.4101 17.1648 13.2188 17.1648 12C17.1643 10.3659 16.5588 8.79881 15.4814 7.6433C14.404 6.48779 12.9429 5.83841 11.4192 5.83789ZM11.4192 8C12.1571 7.99884 12.8787 8.23245 13.4928 8.67127C14.1068 9.11009 14.5857 9.7344 14.8688 10.4652C15.1519 11.196 15.2266 12.0005 15.0833 12.7768C14.94 13.5531 14.5852 14.2664 14.0638 14.8263C13.5425 15.3863 12.8779 15.7679 12.1543 15.9227C11.4307 16.0775 10.6805 15.9987 9.99867 15.6961C9.31685 15.3935 8.73404 14.8808 8.32398 14.2229C7.91393 13.565 7.69505 12.7914 7.69505 12C7.69697 10.9415 8.09002 9.92698 8.78807 9.17869C9.48612 8.4304 10.4323 8.00936 11.4192 8.00781V8Z" fill="white"/>
</g>
<defs>
<clipPath id="clip0_136_284">
<rect width="22.3777" height="24" fill="white" transform="translate(0.228516)"/>
</clipPath>
</defs>
</svg>
