<svg width="23" height="24" viewBox="0 0 23 24" fill="none" xmlns="http://www.w3.org/2000/svg">
<g clip-path="url(#clip0_155_513)">
<path d="M11.1907 0C8.15127 0 7.76884 0.0136719 6.57601 0.0722656C5.64799 0.0924949 4.72988 0.281371 3.86074 0.630859C3.11373 0.930393 2.4373 1.40248 1.87938 2.01367C1.31002 2.61325 0.868857 3.33829 0.586396 4.13867C0.260404 5.07138 0.0848899 6.05682 0.0673809 7.05273C0.0145688 8.33203 0 8.74023 0 12C0 15.2598 0.0127477 15.666 0.0673809 16.9473C0.0862428 17.9426 0.262352 18.9272 0.588217 19.8594C0.86888 20.6598 1.30888 21.385 1.87756 21.9844C2.43613 22.5956 3.1123 23.0689 3.85892 23.3711C4.72883 23.7198 5.64751 23.908 6.57601 23.9277C7.76884 23.9863 8.14945 24 11.1889 24C14.2283 24 14.6071 23.9863 15.8017 23.9277C16.7302 23.908 17.6489 23.7198 18.5188 23.3711C19.263 23.0615 19.9388 22.589 20.5032 21.9837C21.0676 21.3784 21.5082 20.6536 21.7968 19.8555C22.1209 18.9228 22.297 17.9385 22.3176 16.9434C22.3705 15.6641 22.385 15.2559 22.385 11.9961C22.385 8.73633 22.3705 8.32812 22.3176 7.04883C22.297 6.0531 22.1209 5.06811 21.7968 4.13477C21.5157 3.33411 21.0751 2.6089 20.5056 2.00977C19.9481 1.39813 19.2715 0.92597 18.5243 0.626953C17.652 0.277932 16.7308 0.0903683 15.7999 0.0722656C14.6053 0.0136719 14.2265 0 11.187 0H11.1907ZM10.1854 2.16211H11.1907C14.1773 2.16211 14.5306 2.17383 15.7107 2.23242C16.4202 2.24108 17.1231 2.38048 17.7886 2.64453C18.2744 2.83703 18.7138 3.14406 19.0743 3.54297C19.4454 3.93024 19.7316 4.40126 19.912 4.92188C20.1582 5.63561 20.2881 6.38943 20.2962 7.15039C20.3509 8.41406 20.3618 8.79492 20.3618 11.998C20.3618 15.2012 20.3509 15.5801 20.2962 16.8457C20.2883 17.6061 20.1583 18.3593 19.912 19.0723C19.7256 19.5894 19.4404 20.059 19.0747 20.4508C18.709 20.8427 18.2709 21.1482 17.7886 21.3477C17.1235 21.6137 16.4204 21.7538 15.7107 21.7617C14.5324 21.8203 14.1773 21.832 11.1907 21.832C8.20408 21.832 7.84896 21.8203 6.66889 21.7617C5.95925 21.7524 5.25639 21.6124 4.59101 21.3477C4.10466 21.156 3.66466 20.8496 3.30348 20.4512C2.9322 20.0644 2.64655 19.5932 2.4676 19.0723C2.22078 18.3586 2.09018 17.6048 2.08152 16.8438C2.02871 15.5781 2.01778 15.1992 2.01778 11.9941C2.01778 8.78906 2.02871 8.41211 2.08152 7.14648C2.08909 6.38529 2.21972 5.63127 2.4676 4.91797C2.64655 4.39706 2.9322 3.92586 3.30348 3.53906C3.66495 3.14052 4.10482 2.83358 4.59101 2.64062C5.2566 2.37673 5.95933 2.2367 6.66889 2.22656C7.70145 2.17773 8.10028 2.16211 10.1854 2.16016V2.16211ZM17.1621 4.1543C16.8962 4.1543 16.6363 4.23888 16.4152 4.39735C16.1942 4.55582 16.0219 4.78106 15.9203 5.04455C15.8186 5.30805 15.7921 5.59797 15.8441 5.87763C15.8961 6.15729 16.0243 6.41412 16.2124 6.61562C16.4005 6.81713 16.6402 6.95425 16.901 7.00965C17.1618 7.06505 17.4321 7.03622 17.6777 6.92683C17.9232 6.81743 18.133 6.63238 18.2805 6.39508C18.4279 6.15779 18.5064 5.87892 18.5061 5.59375C18.5061 5.40455 18.4713 5.21721 18.4037 5.04244C18.3362 4.86767 18.2371 4.7089 18.1123 4.57521C17.9875 4.44152 17.8393 4.33553 17.6763 4.26331C17.5132 4.19108 17.3385 4.15404 17.1621 4.1543ZM11.1907 5.83789C10.0543 5.83789 8.94347 6.19929 7.99862 6.87639C7.05376 7.55349 6.31733 8.51588 5.88246 9.64186C5.44759 10.7678 5.33381 12.0068 5.5555 13.2022C5.7772 14.3975 6.32441 15.4955 7.12795 16.3573C7.93148 17.2191 8.95525 17.8059 10.0698 18.0437C11.1843 18.2815 12.3396 18.1594 13.3894 17.693C14.4393 17.2267 15.3366 16.4368 15.968 15.4235C16.5993 14.4101 16.9363 13.2188 16.9363 12C16.9358 10.3659 16.3303 8.79881 15.2529 7.6433C14.1755 6.48779 12.7144 5.83841 11.1907 5.83789ZM11.1907 8C11.9286 7.99884 12.6502 8.23245 13.2642 8.67127C13.8783 9.11009 14.3572 9.7344 14.6403 10.4652C14.9234 11.196 14.9981 12.0005 14.8548 12.7768C14.7115 13.5531 14.3567 14.2664 13.8353 14.8263C13.314 15.3863 12.6494 15.7679 11.9258 15.9227C11.2022 16.0775 10.452 15.9987 9.77015 15.6961C9.08834 15.3935 8.50553 14.8808 8.09547 14.2229C7.68541 13.565 7.46653 12.7914 7.46653 12C7.46846 10.9415 7.8615 9.92698 8.55955 9.17869C9.2576 8.4304 10.2037 8.00936 11.1907 8.00781V8Z" fill="white"/>
</g>
<defs>
<clipPath id="clip0_155_513">
<rect width="22.3777" height="24" fill="white"/>
</clipPath>
</defs>
</svg>
