<svg width="32" height="32" viewBox="0 0 32 32" fill="none" xmlns="http://www.w3.org/2000/svg">
<g clip-path="url(#clip0_155_490)">
<path d="M16 0C7.16429 0 0 7.16429 0 16C0 24.8357 7.16429 32 16 32C24.8357 32 32 24.8357 32 16C32 7.16429 24.8357 0 16 0ZM16 29.2857C8.66429 29.2857 2.71429 23.3357 2.71429 16C2.71429 8.66429 8.66429 2.71429 16 2.71429C23.3357 2.71429 29.2857 8.66429 29.2857 16C29.2857 23.3357 23.3357 29.2857 16 29.2857Z" fill="white"/>
<path d="M16.0001 2.71436C8.66436 2.71436 2.71436 8.66436 2.71436 16.0001C2.71436 23.3358 8.66436 29.2858 16.0001 29.2858C23.3358 29.2858 29.2858 23.3358 29.2858 16.0001C29.2858 8.66436 23.3358 2.71436 16.0001 2.71436ZM16.1965 21.7501C18.0858 21.7501 19.3679 20.6179 19.5179 18.9715C19.5322 18.8251 19.6536 18.7108 19.8036 18.7108H21.8322C21.9251 18.7108 22.0001 18.7858 22.0001 18.8786C22.0001 21.8286 19.5465 23.9286 16.1894 23.9286C12.2644 23.9286 10.0001 21.3144 10.0001 16.9679V15.1001C10.0001 10.7215 12.2644 8.0715 16.1894 8.0715C19.5572 8.0715 22.0001 10.2394 22.0001 13.3358C22.0001 13.4286 21.9251 13.5036 21.8322 13.5036H19.8072C19.6572 13.5036 19.5322 13.3894 19.5215 13.2394C19.3786 11.4679 18.0929 10.2608 16.2001 10.2608C13.8715 10.2608 12.5536 11.9929 12.5501 15.1001V16.9786C12.5501 20.0394 13.8644 21.7501 16.1965 21.7501Z" fill="#9CB3E1"/>
<path d="M16.2 10.2608C18.0929 10.2608 19.3786 11.468 19.5214 13.2394C19.5321 13.3894 19.6571 13.5037 19.8071 13.5037H21.8321C21.925 13.5037 22 13.4287 22 13.3358C22 10.2394 19.5571 8.07153 16.1893 8.07153C12.2643 8.07153 10 10.7215 10 15.1001V16.968C10 21.3144 12.2643 23.9287 16.1893 23.9287C19.5464 23.9287 22 21.8287 22 18.8787C22 18.7858 21.925 18.7108 21.8321 18.7108H19.8036C19.6536 18.7108 19.5321 18.8251 19.5179 18.9715C19.3679 20.618 18.0857 21.7501 16.1964 21.7501C13.8643 21.7501 12.55 20.0394 12.55 16.9787V15.1001C12.5536 11.993 13.8714 10.2608 16.2 10.2608Z" fill="white"/>
</g>
<defs>
<clipPath id="clip0_155_490">
<rect width="32" height="32" fill="white"/>
</clipPath>
</defs>
</svg>
