<svg width="10" height="10" viewBox="0 0 10 10" fill="none" xmlns="http://www.w3.org/2000/svg">
<g clip-path="url(#clip0_327_109)">
<path d="M2.8125 1.25004V2.18754M7.1875 1.25004V2.18754M1.25 7.81254V3.12504C1.25 2.8764 1.34877 2.63794 1.52459 2.46213C1.7004 2.28631 1.93886 2.18754 2.1875 2.18754H7.8125C8.06114 2.18754 8.2996 2.28631 8.47541 2.46213C8.65123 2.63794 8.75 2.8764 8.75 3.12504V7.81254M1.25 7.81254C1.25 8.06118 1.34877 8.29964 1.52459 8.47545C1.7004 8.65127 1.93886 8.75004 2.1875 8.75004H7.8125C8.06114 8.75004 8.2996 8.65127 8.47541 8.47545C8.65123 8.29964 8.75 8.06118 8.75 7.81254M1.25 7.81254V4.68754C1.25 4.4389 1.34877 4.20044 1.52459 4.02463C1.7004 3.84881 1.93886 3.75004 2.1875 3.75004H7.8125C8.06114 3.75004 8.2996 3.84881 8.47541 4.02463C8.65123 4.20044 8.75 4.4389 8.75 4.68754V7.81254M5 5.31254H5.00333V5.31588H5V5.31254ZM5 6.25004H5.00333V6.25338H5V6.25004ZM5 7.18754H5.00333V7.19087H5V7.18754ZM4.0625 6.25004H4.06583V6.25338H4.0625V6.25004ZM4.0625 7.18754H4.06583V7.19087H4.0625V7.18754ZM3.125 6.25004H3.12833V6.25338H3.125V6.25004ZM3.125 7.18754H3.12833V7.19087H3.125V7.18754ZM5.9375 5.31254H5.94083V5.31588H5.9375V5.31254ZM5.9375 6.25004H5.94083V6.25338H5.9375V6.25004ZM5.9375 7.18754H5.94083V7.19087H5.9375V7.18754ZM6.875 5.31254H6.87833V5.31588H6.875V5.31254ZM6.875 6.25004H6.87833V6.25338H6.875V6.25004Z" stroke="#64748B" stroke-width="0.75" stroke-linecap="round" stroke-linejoin="round"/>
</g>
<defs>
<clipPath id="clip0_327_109">
<rect width="10" height="10" fill="white"/>
</clipPath>
</defs>
</svg>
