<svg width="8" height="9" viewBox="0 0 8 9" fill="none" xmlns="http://www.w3.org/2000/svg">
<path d="M4.39668 3.39609C4.61328 3.49951 4.80191 3.6534 4.94671 3.84484C5.09151 4.03627 5.18826 4.25967 5.22882 4.49624C5.26938 4.73282 5.25258 4.97568 5.17982 5.20442C5.10705 5.43316 4.98046 5.64109 4.81068 5.81076L3.31068 7.31076C3.02937 7.59207 2.64784 7.7501 2.25001 7.7501C1.85218 7.7501 1.47065 7.59207 1.18934 7.31076C0.908036 7.02945 0.75 6.64792 0.75 6.25009C0.75 5.85227 0.908036 5.47073 1.18934 5.18943L1.77501 4.60376M6.22501 4.39643L6.81067 3.81076C7.09198 3.52945 7.25002 3.14792 7.25002 2.75009C7.25002 2.35227 7.09198 1.97073 6.81067 1.68943C6.52937 1.40812 6.14784 1.25008 5.75001 1.25008C5.35218 1.25008 4.97065 1.40812 4.68934 1.68943L3.18934 3.18943C3.01955 3.35909 2.89296 3.56703 2.8202 3.79577C2.74744 4.0245 2.73064 4.26736 2.7712 4.50394C2.81176 4.74052 2.90851 4.96391 3.05331 5.15535C3.19811 5.34678 3.38673 5.50067 3.60334 5.60409" stroke="#334155" stroke-width="0.5" stroke-linecap="round" stroke-linejoin="round"/>
</svg>
