<svg width="10" height="10" viewBox="0 0 10 10" fill="none" xmlns="http://www.w3.org/2000/svg">
<g clip-path="url(#clip0_274_1089)">
<path d="M7.98987 0.902027C7.96692 0.788998 7.9056 0.68738 7.8163 0.614389C7.727 0.541399 7.61521 0.501526 7.49987 0.501526C7.38454 0.501526 7.27275 0.541399 7.18345 0.614389C7.09415 0.68738 7.03283 0.788998 7.00987 0.902027L6.88987 1.49803C6.87058 1.59484 6.82306 1.68378 6.7533 1.75362C6.68354 1.82347 6.59466 1.87111 6.49787 1.89053L5.90187 2.00953C5.7883 2.03199 5.68604 2.09316 5.61255 2.18262C5.53905 2.27207 5.49888 2.38425 5.49888 2.50003C5.49888 2.6158 5.53905 2.72798 5.61255 2.81744C5.68604 2.90689 5.7883 2.96807 5.90187 2.99053L6.49787 3.10953C6.59475 3.12886 6.68374 3.17645 6.75359 3.24631C6.82345 3.31616 6.87104 3.40515 6.89037 3.50203L7.00937 4.09803C7.03183 4.2116 7.09301 4.31386 7.18246 4.38735C7.27192 4.46085 7.3841 4.50102 7.49987 4.50102C7.61565 4.50102 7.72783 4.46085 7.81728 4.38735C7.90674 4.31386 7.96791 4.2116 7.99037 4.09803L8.10937 3.50203C8.1287 3.40515 8.1763 3.31616 8.24616 3.24631C8.31601 3.17645 8.40499 3.12886 8.50187 3.10953L9.09787 2.99053C9.21145 2.96807 9.31371 2.90689 9.3872 2.81744C9.4607 2.72798 9.50087 2.6158 9.50087 2.50003C9.50087 2.38425 9.4607 2.27207 9.3872 2.18262C9.31371 2.09316 9.21145 2.03199 9.09787 2.00953L8.50187 1.89053C8.40499 1.8712 8.31601 1.8236 8.24616 1.75375C8.1763 1.68389 8.1287 1.59491 8.10937 1.49803L7.99037 0.902027H7.98987ZM3.47437 2.84203C3.44126 2.74236 3.3776 2.65564 3.29243 2.59419C3.20726 2.53274 3.1049 2.49967 2.99987 2.49967C2.89485 2.49967 2.79249 2.53274 2.70732 2.59419C2.62214 2.65564 2.55849 2.74236 2.52537 2.84203L2.18387 3.86753C2.15934 3.94125 2.11796 4.00823 2.06302 4.06317C2.00808 4.11811 1.94109 4.15949 1.86737 4.18403L0.841874 4.52553C0.742203 4.55864 0.65549 4.6223 0.594037 4.70747C0.532584 4.79264 0.499512 4.895 0.499512 5.00003C0.499512 5.10505 0.532584 5.20741 0.594037 5.29259C0.65549 5.37776 0.742203 5.44141 0.841874 5.47453L1.86737 5.81653C1.94104 5.84101 2.00799 5.88232 2.06293 5.93717C2.11786 5.99201 2.15927 6.0589 2.18387 6.13253L2.52537 7.15803C2.55849 7.2577 2.62214 7.34441 2.70732 7.40586C2.79249 7.46732 2.89485 7.50039 2.99987 7.50039C3.1049 7.50039 3.20726 7.46732 3.29243 7.40586C3.3776 7.34441 3.44126 7.2577 3.47437 7.15803L3.81587 6.13253C3.84041 6.05881 3.88179 5.99182 3.93673 5.93688C3.99167 5.88194 4.05866 5.84056 4.13237 5.81603L5.15787 5.47453C5.25754 5.44141 5.34426 5.37776 5.40571 5.29259C5.46716 5.20741 5.50024 5.10505 5.50024 5.00003C5.50024 4.895 5.46716 4.79264 5.40571 4.70747C5.34426 4.6223 5.25754 4.55864 5.15787 4.52553L4.13237 4.18403C4.05866 4.15949 3.99167 4.11811 3.93673 4.06317C3.88179 4.00823 3.84041 3.94125 3.81587 3.86753L3.47487 2.84203H3.47437ZM6.97437 6.84203C6.94126 6.74236 6.8776 6.65564 6.79243 6.59419C6.70726 6.53274 6.6049 6.49967 6.49987 6.49967C6.39485 6.49967 6.29249 6.53274 6.20731 6.59419C6.12214 6.65564 6.05849 6.74236 6.02537 6.84203L5.93337 7.11753C5.90889 7.19119 5.86758 7.25814 5.81273 7.31308C5.75789 7.36801 5.691 7.40942 5.61737 7.43403L5.34187 7.52553C5.2422 7.55864 5.15549 7.6223 5.09404 7.70747C5.03258 7.79264 4.99951 7.895 4.99951 8.00003C4.99951 8.10505 5.03258 8.20741 5.09404 8.29259C5.15549 8.37776 5.2422 8.44141 5.34187 8.47453L5.61737 8.56603C5.69109 8.59056 5.75808 8.63194 5.81302 8.68688C5.86796 8.74182 5.90934 8.80881 5.93387 8.88253L6.02537 9.15803C6.05849 9.2577 6.12214 9.34441 6.20731 9.40586C6.29249 9.46732 6.39485 9.50039 6.49987 9.50039C6.6049 9.50039 6.70726 9.46732 6.79243 9.40586C6.8776 9.34441 6.94126 9.2577 6.97437 9.15803L7.06637 8.88253C7.09086 8.80886 7.13216 8.74191 7.18701 8.68698C7.24186 8.63204 7.30875 8.59063 7.38237 8.56603L7.65787 8.47453C7.75754 8.44141 7.84426 8.37776 7.90571 8.29259C7.96716 8.20741 8.00024 8.10505 8.00024 8.00003C8.00024 7.895 7.96716 7.79264 7.90571 7.70747C7.84426 7.6223 7.75754 7.55864 7.65787 7.52553L7.38237 7.43353C7.30871 7.40904 7.24176 7.36774 7.18682 7.31289C7.13189 7.25804 7.09048 7.19115 7.06587 7.11753L6.97437 6.84203Z" fill="#334155"/>
</g>
<defs>
<clipPath id="clip0_274_1089">
<rect width="10" height="10" fill="white"/>
</clipPath>
</defs>
</svg>
