<svg width="8" height="9" viewBox="0 0 8 9" fill="none" xmlns="http://www.w3.org/2000/svg">
<g clip-path="url(#clip0_327_417)">
<path d="M4 0.59903C1.79 0.59903 0 2.39003 0 4.59903C0 6.3667 1.146 7.86569 2.735 8.39403C2.935 8.43169 3.00833 8.30803 3.00833 8.2017C3.00833 8.1067 3.005 7.85503 3.00333 7.5217C1.89067 7.76303 1.656 6.98503 1.656 6.98503C1.474 6.52336 1.211 6.40003 1.211 6.40003C0.848667 6.15203 1.239 6.15703 1.239 6.15703C1.64067 6.18503 1.85167 6.56903 1.85167 6.56903C2.20833 7.1807 2.788 7.00403 3.01667 6.9017C3.05267 6.64303 3.15567 6.4667 3.27 6.3667C2.38167 6.2667 1.448 5.9227 1.448 4.39003C1.448 3.95336 1.603 3.5967 1.85967 3.3167C1.81467 3.2157 1.67967 2.80903 1.89467 2.25803C1.89467 2.25803 2.22967 2.1507 2.99467 2.66803C3.31467 2.57903 3.65467 2.53503 3.99467 2.53303C4.33467 2.53503 4.67467 2.57903 4.99467 2.66803C5.75467 2.1507 6.08967 2.25803 6.08967 2.25803C6.30467 2.80903 6.16967 3.2157 6.12967 3.3167C6.38467 3.5967 6.53967 3.95336 6.53967 4.39003C6.53967 5.9267 5.60467 6.26503 4.71467 6.36336C4.85467 6.48336 4.98467 6.7287 4.98467 7.10336C4.98467 7.6387 4.97967 8.0687 4.97967 8.1987C4.97967 8.3037 5.04967 8.4287 5.25467 8.3887C6.855 7.86403 8 6.36403 8 4.59903C8 2.39003 6.209 0.59903 4 0.59903Z" fill="#222222"/>
</g>
<defs>
<clipPath id="clip0_327_417">
<rect width="8" height="8" fill="white" transform="translate(0 0.500031)"/>
</clipPath>
</defs>
</svg>
