<svg width="9" height="9" viewBox="0 0 9 9" fill="none" xmlns="http://www.w3.org/2000/svg">
<g clip-path="url(#clip0_327_357)">
<path d="M7.19067 7.31733H6.006V5.461C6.006 5.01833 5.997 4.44867 5.38867 4.44867C4.771 4.44867 4.67667 4.93033 4.67667 5.42833V7.31733H3.492V3.5H4.63V4.02033H4.64533C4.80433 3.72033 5.191 3.40367 5.76867 3.40367C6.969 3.40367 7.191 4.19367 7.191 5.222V7.31733H7.19067ZM2.154 2.97767C1.77267 2.97767 1.46633 2.669 1.46633 2.28933C1.46633 1.91 1.773 1.60167 2.154 1.60167C2.534 1.60167 2.842 1.91 2.842 2.28933C2.842 2.669 2.53367 2.97767 2.154 2.97767ZM2.748 7.31733H1.56V3.5H2.748V7.31733ZM7.78333 0.5H0.965333C0.639 0.5 0.375 0.758 0.375 1.07633V7.92367C0.375 8.24233 0.639 8.5 0.965333 8.5H7.78233C8.10833 8.5 8.375 8.24233 8.375 7.92367V1.07633C8.375 0.758 8.10833 0.5 7.78233 0.5H7.78333Z" fill="#0A66C2"/>
</g>
<defs>
<clipPath id="clip0_327_357">
<rect width="8" height="8" fill="white" transform="translate(0.375 0.5)"/>
</clipPath>
</defs>
</svg>
