<svg width="8" height="9" viewBox="0 0 8 9" fill="none" xmlns="http://www.w3.org/2000/svg">
<g clip-path="url(#clip0_327_112)">
<path d="M5.28424 3.4937H3.7549V0.500031H5.28424C6.10957 0.500031 6.7809 1.17136 6.7809 1.9967C6.7809 2.82203 6.10957 3.4937 5.28424 3.4937ZM4.24524 3.00336H5.28424C5.83924 3.00336 6.29057 2.5517 6.29057 1.99703C6.29057 1.44236 5.8389 0.990697 5.28424 0.990697H4.24524V3.00336ZM4.24524 3.4937H2.71624C1.8909 3.4937 1.21957 2.82236 1.21957 1.99703C1.21957 1.1717 1.8909 0.500031 2.71624 0.500031H4.24557V3.4937H4.24524ZM2.71624 0.990364C2.16124 0.990364 1.7099 1.44203 1.7099 1.9967C1.7099 2.55136 2.16124 3.00336 2.71624 3.00336H3.75524V0.990364H2.71624ZM4.24524 5.9967H2.71624C1.8909 5.9967 1.21957 5.32536 1.21957 4.50003C1.21957 3.6747 1.8909 3.00336 2.71624 3.00336H4.24557V5.9967H4.24524ZM2.71624 3.4937C2.16124 3.4937 1.7099 3.94536 1.7099 4.50003C1.7099 5.0547 2.16157 5.50636 2.71624 5.50636H3.75524V3.4937H2.71624ZM2.72424 8.50003C1.89457 8.50003 1.21924 7.8287 1.21924 7.00336C1.21924 6.17803 1.89057 5.5067 2.71591 5.5067H4.24524V6.98703C4.24524 7.82136 3.56291 8.50003 2.72424 8.50003ZM2.71624 5.9967C2.44945 5.99705 2.19369 6.10319 2.00504 6.29184C1.8164 6.48048 1.71026 6.73624 1.7099 7.00303C1.7099 7.55803 2.16491 8.00936 2.72457 8.00936C3.29291 8.00936 3.75557 7.5507 3.75557 6.9867V5.9967H2.71624ZM5.28424 5.9967H5.25157C4.42624 5.9967 3.7549 5.32536 3.7549 4.50003C3.7549 3.6747 4.42624 3.00336 5.25157 3.00336H5.28424C6.10957 3.00336 6.7809 3.6747 6.7809 4.50003C6.7809 5.32536 6.10957 5.9967 5.28424 5.9967ZM5.2519 3.4937C4.6969 3.4937 4.24557 3.94536 4.24557 4.50003C4.24557 5.0547 4.69724 5.50636 5.2519 5.50636H5.28457C5.83957 5.50636 6.2909 5.0547 6.2909 4.50003C6.2909 3.94536 5.83924 3.4937 5.28457 3.4937H5.2519Z" fill="#F24E1E"/>
</g>
<defs>
<clipPath id="clip0_327_112">
<rect width="8" height="8" fill="white" transform="translate(0 0.500031)"/>
</clipPath>
</defs>
</svg>
