<svg width="23" height="24" viewBox="0 0 23 24" fill="none" xmlns="http://www.w3.org/2000/svg">
<path d="M11.189 0C5.01028 0 0 5.50847 0 12.3038C0 17.74 3.20598 22.3519 7.6517 23.9789C8.21089 24.0927 8.41618 23.7119 8.41618 23.387C8.41618 23.0936 8.4058 22.1244 8.40099 21.0963C5.28821 21.8405 4.63137 19.6446 4.63137 19.6446C4.1224 18.2224 3.38904 17.8443 3.38904 17.8443C2.37387 17.0806 3.46556 17.0963 3.46556 17.0963C4.58913 17.1831 5.18074 18.3642 5.18074 18.3642C6.17868 20.2452 7.79826 19.7014 8.43675 19.387C8.53717 18.5918 8.82714 18.049 9.14713 17.7418C6.66191 17.4307 4.04939 16.3757 4.04939 11.6612C4.04939 10.3179 4.48648 9.22032 5.20223 8.35868C5.08606 8.04878 4.70308 6.79737 5.31063 5.10261C5.31063 5.10261 6.2502 4.77193 8.38839 6.3638C9.2809 6.09119 10.2381 5.95447 11.189 5.94979C12.1398 5.95447 13.0978 6.09119 13.9919 6.3638C16.1275 4.77193 17.0658 5.10261 17.0658 5.10261C17.6749 6.79737 17.2917 8.04878 17.1755 8.35868C17.8929 9.22032 18.3271 10.3179 18.3271 11.6612C18.3271 16.3869 15.7095 17.4274 13.218 17.732C13.6193 18.1138 13.9769 18.8626 13.9769 20.0105C13.9769 21.6568 13.964 22.9817 13.964 23.387C13.964 23.7144 14.1654 24.098 14.7325 23.9772C19.1758 22.3485 22.3777 17.7381 22.3777 12.3038C22.3777 5.50847 17.3682 0 11.189 0ZM4.19063 17.527C4.16599 17.5882 4.07853 17.6065 3.99886 17.5645C3.91771 17.5244 3.87213 17.4411 3.89844 17.3797C3.92252 17.3168 4.01016 17.2992 4.09113 17.3414C4.17247 17.3816 4.21879 17.4657 4.19063 17.527ZM4.741 18.0671C4.68764 18.1215 4.58333 18.0962 4.51255 18.0102C4.43936 17.9244 4.42565 17.8097 4.47975 17.7545C4.53478 17.7001 4.63595 17.7256 4.70932 17.8114C4.78251 17.8981 4.79677 18.012 4.741 18.0671ZM5.11858 18.758C5.05002 18.8104 4.93793 18.7613 4.86863 18.6518C4.80008 18.5424 4.80008 18.4112 4.87011 18.3587C4.9396 18.3061 5.05002 18.3534 5.12025 18.462C5.18862 18.5732 5.18862 18.7044 5.11858 18.758ZM5.75714 19.5582C5.69581 19.6326 5.56519 19.6126 5.46958 19.5111C5.37175 19.4119 5.34451 19.2711 5.40603 19.1968C5.4681 19.1222 5.59947 19.1432 5.69581 19.2438C5.7929 19.3428 5.82255 19.4846 5.75714 19.5582ZM6.58242 19.8283C6.55537 19.9247 6.42956 19.9685 6.30283 19.9276C6.17628 19.8854 6.09346 19.7725 6.11903 19.6751C6.14534 19.5781 6.2717 19.5325 6.39936 19.5763C6.52573 19.6183 6.60873 19.7303 6.58242 19.8283ZM7.52163 19.9429C7.52478 20.0444 7.41731 20.1285 7.28428 20.1304C7.1505 20.1336 7.0423 20.0515 7.04081 19.9517C7.04081 19.8492 7.14587 19.7659 7.27965 19.7634C7.41268 19.7606 7.52163 19.8421 7.52163 19.9429ZM8.44429 19.904C8.46022 20.0031 8.36777 20.1047 8.23566 20.1318C8.10577 20.1579 7.98552 20.0968 7.96903 19.9986C7.95291 19.8971 8.04704 19.7954 8.17674 19.7692C8.30903 19.7439 8.42743 19.8034 8.44429 19.904Z" fill="white"/>
</svg>
