<svg width="24" height="24" viewBox="0 0 24 24" fill="none" xmlns="http://www.w3.org/2000/svg">
<path d="M11.8491 0C5.67044 0 0.660156 5.50847 0.660156 12.3038C0.660156 17.74 3.86613 22.3519 8.31185 23.9789C8.87104 24.0927 9.07634 23.7119 9.07634 23.387C9.07634 23.0936 9.06596 22.1244 9.06114 21.0963C5.94836 21.8405 5.29153 19.6446 5.29153 19.6446C4.78255 18.2224 4.0492 17.8443 4.0492 17.8443C3.03402 17.0806 4.12572 17.0963 4.12572 17.0963C5.24928 17.1831 5.8409 18.3642 5.8409 18.3642C6.83884 20.2452 8.45841 19.7014 9.0969 19.387C9.19733 18.5918 9.4873 18.049 9.80728 17.7418C7.32206 17.4307 4.70955 16.3757 4.70955 11.6612C4.70955 10.3179 5.14664 9.22032 5.86239 8.35868C5.74622 8.04878 5.36323 6.79737 5.97078 5.10261C5.97078 5.10261 6.91036 4.77193 9.04854 6.3638C9.94106 6.09119 10.8982 5.95447 11.8491 5.94979C12.8 5.95447 13.7579 6.09119 14.6521 6.3638C16.7877 4.77193 17.726 5.10261 17.726 5.10261C18.335 6.79737 17.9518 8.04878 17.8357 8.35868C18.5531 9.22032 18.9872 10.3179 18.9872 11.6612C18.9872 16.3869 16.3697 17.4274 13.8782 17.732C14.2795 18.1138 14.6371 18.8626 14.6371 20.0105C14.6371 21.6568 14.6241 22.9817 14.6241 23.387C14.6241 23.7144 14.8255 24.098 15.3927 23.9772C19.836 22.3485 23.0379 17.7381 23.0379 12.3038C23.0379 5.50847 18.0284 0 11.8491 0ZM4.85079 17.527C4.82614 17.5882 4.73869 17.6065 4.65902 17.5645C4.57786 17.5244 4.53228 17.4411 4.55859 17.3797C4.58268 17.3168 4.67032 17.2992 4.75129 17.3414C4.83263 17.3816 4.87895 17.4657 4.85079 17.527ZM5.40116 18.0671C5.3478 18.1215 5.24348 18.0962 5.1727 18.0102C5.09952 17.9244 5.08581 17.8097 5.13991 17.7545C5.19494 17.7001 5.2961 17.7256 5.36948 17.8114C5.44266 17.8981 5.45693 18.012 5.40116 18.0671ZM5.77874 18.758C5.71018 18.8104 5.59808 18.7613 5.52879 18.6518C5.46023 18.5424 5.46023 18.4112 5.53027 18.3587C5.59975 18.3061 5.71018 18.3534 5.7804 18.462C5.84877 18.5732 5.84877 18.7044 5.77874 18.758ZM6.4173 19.5582C6.35597 19.6326 6.22534 19.6126 6.12974 19.5111C6.03191 19.4119 6.00467 19.2711 6.06618 19.1968C6.12826 19.1222 6.25962 19.1432 6.35597 19.2438C6.45306 19.3428 6.4827 19.4846 6.4173 19.5582ZM7.24258 19.8283C7.21553 19.9247 7.08972 19.9685 6.96299 19.9276C6.83644 19.8854 6.75361 19.7725 6.77918 19.6751C6.80549 19.5781 6.93186 19.5325 7.05952 19.5763C7.18588 19.6183 7.26889 19.7303 7.24258 19.8283ZM8.18178 19.9429C8.18493 20.0444 8.07747 20.1285 7.94443 20.1304C7.81066 20.1336 7.70245 20.0515 7.70097 19.9517C7.70097 19.8492 7.80603 19.7659 7.9398 19.7634C8.07284 19.7606 8.18178 19.8421 8.18178 19.9429ZM9.10445 19.904C9.12038 20.0031 9.02792 20.1047 8.89581 20.1318C8.76593 20.1579 8.64568 20.0968 8.62919 19.9986C8.61307 19.8971 8.7072 19.7954 8.83689 19.7692C8.96919 19.7439 9.08758 19.8034 9.10445 19.904Z" fill="white"/>
</svg>
