<svg width="17" height="17" viewBox="0 0 17 17" fill="none" xmlns="http://www.w3.org/2000/svg">
<path d="M9.66959 7.2136C9.02159 6.5313 8.14287 6.14801 7.22664 6.14801C6.31042 6.14801 5.4317 6.5313 4.78369 7.2136L2.33995 9.78693C1.69193 10.4695 1.32788 11.3953 1.32788 12.3607C1.32788 13.326 1.69193 14.2518 2.33995 14.9344C2.98796 15.617 3.86686 16.0005 4.7833 16.0005C5.69973 16.0005 6.57863 15.617 7.22664 14.9344L8.44812 13.6477" stroke="black" stroke-width="1.66667" stroke-linecap="round" stroke-linejoin="round"/>
<path d="M7.22656 9.78694C7.87457 10.4692 8.75329 10.8525 9.66951 10.8525C10.5857 10.8525 11.4645 10.4692 12.1125 9.78694L14.5562 7.2136C15.2042 6.531 15.5683 5.60519 15.5683 4.63984C15.5683 3.6745 15.2042 2.74869 14.5562 2.06608C13.9082 1.38348 13.0293 1 12.1129 1C11.1964 1 10.3175 1.38348 9.66951 2.06608L8.44804 3.35276" stroke="black" stroke-width="1.66667" stroke-linecap="round" stroke-linejoin="round"/>
</svg>
