<svg width="590" height="160" viewBox="0 0 590 160" fill="none" xmlns="http://www.w3.org/2000/svg">
<line x1="13.25" y1="1.09278e-08" x2="13.25" y2="176" stroke="white" stroke-opacity="0.2" stroke-width="0.5" stroke-dasharray="2 2"/>
<line x1="29.25" y1="1.09278e-08" x2="29.25" y2="176" stroke="white" stroke-opacity="0.2" stroke-width="0.5" stroke-dasharray="2 2"/>
<line x1="45.25" y1="1.09278e-08" x2="45.25" y2="176" stroke="white" stroke-opacity="0.2" stroke-width="0.5" stroke-dasharray="2 2"/>
<line x1="61.25" y1="1.09278e-08" x2="61.25" y2="176" stroke="white" stroke-opacity="0.2" stroke-width="0.5" stroke-dasharray="2 2"/>
<line x1="77.25" y1="1.09278e-08" x2="77.25" y2="176" stroke="white" stroke-opacity="0.2" stroke-width="0.5" stroke-dasharray="2 2"/>
<line x1="93.25" y1="1.09278e-08" x2="93.25" y2="176" stroke="white" stroke-opacity="0.2" stroke-width="0.5" stroke-dasharray="2 2"/>
<line x1="109.25" y1="1.09278e-08" x2="109.25" y2="176" stroke="white" stroke-opacity="0.2" stroke-width="0.5" stroke-dasharray="2 2"/>
<line x1="125.25" y1="1.09278e-08" x2="125.25" y2="176" stroke="white" stroke-opacity="0.2" stroke-width="0.5" stroke-dasharray="2 2"/>
<line x1="141.25" y1="1.09278e-08" x2="141.25" y2="176" stroke="white" stroke-opacity="0.2" stroke-width="0.5" stroke-dasharray="2 2"/>
<line x1="157.25" y1="1.09278e-08" x2="157.25" y2="176" stroke="white" stroke-opacity="0.2" stroke-width="0.5" stroke-dasharray="2 2"/>
<line x1="173.25" y1="1.09278e-08" x2="173.25" y2="176" stroke="white" stroke-opacity="0.2" stroke-width="0.5" stroke-dasharray="2 2"/>
<line x1="189.25" y1="1.09278e-08" x2="189.25" y2="176" stroke="white" stroke-opacity="0.2" stroke-width="0.5" stroke-dasharray="2 2"/>
<line x1="205.25" y1="1.09278e-08" x2="205.25" y2="176" stroke="white" stroke-opacity="0.2" stroke-width="0.5" stroke-dasharray="2 2"/>
<line x1="221.25" y1="1.09278e-08" x2="221.25" y2="176" stroke="white" stroke-opacity="0.2" stroke-width="0.5" stroke-dasharray="2 2"/>
<line x1="237.25" y1="1.09278e-08" x2="237.25" y2="176" stroke="white" stroke-opacity="0.2" stroke-width="0.5" stroke-dasharray="2 2"/>
<line x1="253.25" y1="1.09278e-08" x2="253.25" y2="176" stroke="white" stroke-opacity="0.2" stroke-width="0.5" stroke-dasharray="2 2"/>
<line x1="269.25" y1="1.09278e-08" x2="269.25" y2="176" stroke="white" stroke-opacity="0.2" stroke-width="0.5" stroke-dasharray="2 2"/>
<line x1="285.25" y1="1.09278e-08" x2="285.25" y2="176" stroke="white" stroke-opacity="0.2" stroke-width="0.5" stroke-dasharray="2 2"/>
<line x1="301.25" y1="1.09278e-08" x2="301.25" y2="176" stroke="white" stroke-opacity="0.2" stroke-width="0.5" stroke-dasharray="2 2"/>
<line x1="317.25" y1="1.09278e-08" x2="317.25" y2="176" stroke="white" stroke-opacity="0.2" stroke-width="0.5" stroke-dasharray="2 2"/>
<line x1="333.25" y1="1.09278e-08" x2="333.25" y2="176" stroke="white" stroke-opacity="0.2" stroke-width="0.5" stroke-dasharray="2 2"/>
<line x1="349.25" y1="1.09278e-08" x2="349.25" y2="176" stroke="white" stroke-opacity="0.2" stroke-width="0.5" stroke-dasharray="2 2"/>
<line x1="365.25" y1="1.09278e-08" x2="365.25" y2="176" stroke="white" stroke-opacity="0.2" stroke-width="0.5" stroke-dasharray="2 2"/>
<line x1="381.25" y1="1.09278e-08" x2="381.25" y2="176" stroke="white" stroke-opacity="0.2" stroke-width="0.5" stroke-dasharray="2 2"/>
<line x1="397.25" y1="1.09278e-08" x2="397.25" y2="176" stroke="white" stroke-opacity="0.2" stroke-width="0.5" stroke-dasharray="2 2"/>
<line x1="413.25" y1="1.09278e-08" x2="413.25" y2="176" stroke="white" stroke-opacity="0.2" stroke-width="0.5" stroke-dasharray="2 2"/>
<line x1="429.25" y1="1.09278e-08" x2="429.25" y2="176" stroke="white" stroke-opacity="0.2" stroke-width="0.5" stroke-dasharray="2 2"/>
<line x1="445.25" y1="1.09278e-08" x2="445.25" y2="176" stroke="white" stroke-opacity="0.2" stroke-width="0.5" stroke-dasharray="2 2"/>
<line x1="461.25" y1="1.09278e-08" x2="461.25" y2="176" stroke="white" stroke-opacity="0.2" stroke-width="0.5" stroke-dasharray="2 2"/>
<line x1="477.25" y1="1.09278e-08" x2="477.25" y2="176" stroke="white" stroke-opacity="0.2" stroke-width="0.5" stroke-dasharray="2 2"/>
<line x1="493.25" y1="1.09278e-08" x2="493.25" y2="176" stroke="white" stroke-opacity="0.2" stroke-width="0.5" stroke-dasharray="2 2"/>
<line x1="509.25" y1="1.09278e-08" x2="509.25" y2="176" stroke="white" stroke-opacity="0.2" stroke-width="0.5" stroke-dasharray="2 2"/>
<line x1="525.25" y1="1.09278e-08" x2="525.25" y2="176" stroke="white" stroke-opacity="0.2" stroke-width="0.5" stroke-dasharray="2 2"/>
<line x1="541.25" y1="1.09278e-08" x2="541.25" y2="176" stroke="white" stroke-opacity="0.2" stroke-width="0.5" stroke-dasharray="2 2"/>
<line x1="557.25" y1="1.09278e-08" x2="557.25" y2="176" stroke="white" stroke-opacity="0.2" stroke-width="0.5" stroke-dasharray="2 2"/>
<line x1="573.25" y1="1.09278e-08" x2="573.25" y2="176" stroke="white" stroke-opacity="0.2" stroke-width="0.5" stroke-dasharray="2 2"/>
<line x1="589.25" y1="1.09278e-08" x2="589.25" y2="176" stroke="white" stroke-opacity="0.2" stroke-width="0.5" stroke-dasharray="2 2"/>
</svg>
