<svg width="6" height="7" viewBox="0 0 6 7" fill="none" xmlns="http://www.w3.org/2000/svg">
<path fill-rule="evenodd" clip-rule="evenodd" d="M2.87254 6.97158L2.87378 6.972C2.95489 7.0074 3.00017 6.99917 3.00017 6.99917C3.00017 6.99917 3.04546 7.0074 3.12698 6.972L3.12781 6.97158L3.13028 6.97035L3.13769 6.96706C3.17677 6.9489 3.21535 6.92968 3.25338 6.90942C3.32996 6.86989 3.43701 6.8106 3.56505 6.73114C3.82031 6.57304 4.15998 6.33343 4.50129 6.00446C5.18309 5.34737 5.88219 4.32013 5.88219 2.88201C5.88219 2.50354 5.80764 2.12877 5.66281 1.77911C5.51797 1.42945 5.30568 1.11174 5.03806 0.844121C4.77044 0.576502 4.45273 0.364215 4.10307 0.21938C3.75341 0.0745454 3.37865 0 3.00017 0C2.6217 0 2.24694 0.0745454 1.89728 0.21938C1.54762 0.364215 1.2299 0.576502 0.962285 0.844121C0.694666 1.11174 0.482379 1.42945 0.337544 1.77911C0.19271 2.12877 0.118164 2.50354 0.118164 2.88201C0.118164 4.31972 0.817258 5.34737 1.49947 6.00446C1.7851 6.2788 2.09877 6.52237 2.4353 6.73114C2.56565 6.81208 2.69974 6.88682 2.83714 6.95512L2.86266 6.96706L2.87007 6.97035L2.87254 6.97158ZM3.00017 3.80837C3.24586 3.80837 3.48148 3.71077 3.65521 3.53705C3.82894 3.36332 3.92654 3.1277 3.92654 2.88201C3.92654 2.63632 3.82894 2.4007 3.65521 2.22698C3.48148 2.05325 3.24586 1.95565 3.00017 1.95565C2.75449 1.95565 2.51887 2.05325 2.34514 2.22698C2.17141 2.4007 2.07381 2.63632 2.07381 2.88201C2.07381 3.1277 2.17141 3.36332 2.34514 3.53705C2.51887 3.71077 2.75449 3.80837 3.00017 3.80837Z" fill="#334155"/>
</svg>
