<svg width="24" height="24" viewBox="0 0 24 24" fill="none" xmlns="http://www.w3.org/2000/svg">
<path d="M19.9299 20.4496H16.6143V14.8805C16.6143 13.5525 16.5922 11.8429 14.8898 11.8429C13.1628 11.8429 12.8986 13.2899 12.8986 14.7838V20.4492H9.58292V8.99689H12.766V10.562H12.8105C13.1291 9.97782 13.5894 9.49726 14.1425 9.17149C14.6955 8.84572 15.3206 8.68693 15.9511 8.71203C19.3117 8.71203 19.9313 11.0828 19.9313 14.167L19.9299 20.4496ZM5.84174 7.43144C5.46118 7.43151 5.08914 7.31055 4.77268 7.08385C4.45622 6.85715 4.20956 6.53489 4.06387 6.15783C3.91817 5.78077 3.87999 5.36584 3.95416 4.96551C4.02834 4.56517 4.21154 4.19743 4.48059 3.90876C4.74963 3.6201 5.09245 3.42348 5.46568 3.34378C5.83891 3.26408 6.22579 3.30488 6.57741 3.46101C6.92902 3.61713 7.22957 3.88158 7.44105 4.22091C7.65254 4.56025 7.76546 4.95922 7.76553 5.36738C7.76557 5.63839 7.71584 5.90675 7.61919 6.15715C7.52253 6.40754 7.38085 6.63507 7.20221 6.82674C7.02357 7.0184 6.81147 7.17045 6.57804 7.27421C6.34461 7.37796 6.09442 7.43139 5.84174 7.43144ZM7.49957 20.4496H4.18044V8.99689H7.49957V20.4496ZM21.5829 0.00163516H2.51432C2.08151 -0.00360329 1.66446 0.175663 1.35483 0.500042C1.04519 0.824421 0.868319 1.26737 0.863037 1.73156V22.2681C0.868138 22.7325 1.04491 23.1758 1.35453 23.5005C1.66415 23.8252 2.0813 24.0048 2.51432 23.9999H21.5829C22.0168 24.0057 22.4351 23.8266 22.746 23.5019C23.0568 23.1772 23.2348 22.7334 23.2408 22.2681V1.73008C23.2346 1.26497 23.0565 0.821515 22.7457 0.497144C22.4348 0.172773 22.0166 -0.00598143 21.5829 0.000152822" fill="white"/>
</svg>
