<svg width="23" height="24" viewBox="0 0 23 24" fill="none" xmlns="http://www.w3.org/2000/svg">
<path d="M19.1584 20.4496H15.8428V14.8805C15.8428 13.5525 15.8207 11.8429 14.1183 11.8429C12.3914 11.8429 12.1271 13.2899 12.1271 14.7838V20.4492H8.81144V8.99689H11.9945V10.562H12.0391C12.3576 9.97782 12.8179 9.49726 13.371 9.17149C13.924 8.84572 14.5491 8.68693 15.1796 8.71203C18.5402 8.71203 19.1598 11.0828 19.1598 14.167L19.1584 20.4496ZM5.07025 7.43144C4.68969 7.43151 4.31765 7.31055 4.00119 7.08385C3.68473 6.85715 3.43808 6.53489 3.29238 6.15783C3.14669 5.78077 3.1085 5.36584 3.18268 4.96551C3.25685 4.56517 3.44006 4.19743 3.7091 3.90876C3.97815 3.6201 4.32096 3.42348 4.6942 3.34378C5.06743 3.26408 5.45431 3.30488 5.80592 3.46101C6.15754 3.61713 6.45809 3.88158 6.66957 4.22091C6.88105 4.56025 6.99397 4.95922 6.99404 5.36738C6.99409 5.63839 6.94436 5.90675 6.8477 6.15715C6.75105 6.40754 6.60937 6.63507 6.43073 6.82674C6.25209 7.0184 6.03998 7.17045 5.80655 7.27421C5.57312 7.37796 5.32293 7.43139 5.07025 7.43144ZM6.72809 20.4496H3.40896V8.99689H6.72809V20.4496ZM20.8115 0.00163516H1.74283C1.31003 -0.00360329 0.892972 0.175663 0.583341 0.500042C0.27371 0.824421 0.0968349 1.26737 0.0915527 1.73156V22.2681C0.0966541 22.7325 0.273425 23.1758 0.583046 23.5005C0.892667 23.8252 1.30982 24.0048 1.74283 23.9999H20.8115C21.2453 24.0057 21.6637 23.8266 21.9745 23.5019C22.2853 23.1772 22.4633 22.7334 22.4693 22.2681V1.73008C22.4631 1.26497 22.285 0.821515 21.9742 0.497144C21.6633 0.172773 21.2451 -0.00598143 20.8115 0.000152822" fill="white"/>
</svg>
