<svg width="10" height="9" viewBox="0 0 10 9" fill="none" xmlns="http://www.w3.org/2000/svg">
<path d="M5 8.50003C5.88667 8.49998 6.74821 8.20545 7.44935 7.66271C8.15049 7.11996 8.65152 6.35972 8.87378 5.50136M5 8.50003C4.11334 8.49998 3.2518 8.20545 2.55066 7.66271C1.84951 7.11996 1.34848 6.35972 1.12622 5.50136M5 8.50003C6.10445 8.50003 7 6.70892 7 4.50003C7 2.29114 6.10445 0.500031 5 0.500031M5 8.50003C3.89556 8.50003 3 6.70892 3 4.50003C3 2.29114 3.89556 0.500031 5 0.500031M5 0.500031C5.70944 0.499735 6.40619 0.68819 7.01875 1.04606C7.63132 1.40393 8.13764 1.91833 8.48578 2.53648M5 0.500031C4.29056 0.499735 3.59381 0.68819 2.98125 1.04606C2.36869 1.40393 1.86236 1.91833 1.51422 2.53648M8.48578 2.53648C7.51808 3.37467 6.28024 3.83521 5 3.83336C3.66756 3.83336 2.44889 3.34448 1.51422 2.53648M8.48578 2.53648C8.82394 3.13558 9.0011 3.81208 9 4.50003C9 4.84581 8.956 5.18136 8.87378 5.50136M8.87378 5.50136C7.68852 6.15842 6.3552 6.50216 5 6.50003C3.59467 6.50003 2.27422 6.13781 1.12622 5.50136M1.12622 5.50136C1.04211 5.17424 0.999701 4.83779 1 4.50003C1 3.7867 1.18667 3.11648 1.51422 2.53648" stroke="#7C3AED" stroke-width="0.5" stroke-linecap="round" stroke-linejoin="round"/>
</svg>
